<?xml version="1.0" encoding="utf-8"?>
<!-- Generator: Adobe Illustrator 19.1.0, SVG Export Plug-In . SVG Version: 6.00 Build 0)  -->
<svg version="1.1" id="Layer_1" xmlns="http://www.w3.org/2000/svg" xmlns:xlink="http://www.w3.org/1999/xlink" x="0px" y="0px"
	 viewBox="0 0 500 500" style="enable-background:new 0 0 500 500;" xml:space="preserve">
<style type="text/css">

	.st0{
		fill:none;
		stroke:#000000;
		stroke-miterlimit:10;
		stroke-dasharray: 1500;
		stroke-dashoffset: 1500;
		-webkit-animation: lines 5s linear forwards;
		animation: lines 5s linear forwards;

	}
	
	.st1{
		fill:none;
		stroke:#000000;
		stroke-miterlimit:10;
		stroke-dasharray: 1500;
		stroke-dashoffset: 1500;
		-webkit-animation: fill 8s linear forwards;
		animation: fill 8s linear forwards;

	}

	@-webkit-keyframes lines {

		to { 
			stroke-dashoffset: 0;
		}
	}

	@keyframes lines {
		to{ 
			stroke-dashoffset: 0;
		}
	}

	@-webkit-keyframes fill {
		to { fill: #000000; }
	}

	@keyframes fill {
		to { fill: #000000; }
	}


	.l2 {
		animation-delay: 1s;
	}
</style>

<g>
	<path class="st0" d="M204,264h-65v-1.8h65v-85.4h-72.8V175H206v136h-77.6v-1.8H204V264z"/>
	<path class="st1" d="M204,264h-65v-1.8h65v-85.4h-72.8V175H206v136h-77.6v-1.8H204V264z"/>
</g>
<g>
	<path class="st0 l2" d="M318.9,307l51.6-132.1h2.2l-53.4,137h-0.4l-30.2-72.9l-30.2,72.9h-0.4l-53.6-137h2L258.3,307l29.2-70.8l-25.4-61.3h2
		l24.4,59l24.4-59h2.2l-25.4,61.5L318.9,307z"/>
	<path class="st1 l2" d="M318.9,307l51.6-132.1h2.2l-53.4,137h-0.4l-30.2-72.9l-30.2,72.9h-0.4l-53.6-137h2L258.3,307l29.2-70.8l-25.4-61.3h2
	l24.4,59l24.4-59h2.2l-25.4,61.5L318.9,307z"/>
</g>
</svg>
