<?xml version="1.0" encoding="utf-8"?>
<!-- Generator: Adobe Illustrator 19.1.0, SVG Export Plug-In . SVG Version: 6.00 Build 0)  -->
<svg version="1.1" xmlns="http://www.w3.org/2000/svg" xmlns:xlink="http://www.w3.org/1999/xlink" x="0px" y="0px"
	 viewBox="0 0 1000 100" style="enable-background:new 0 0 1000 100;" xml:space="preserve">
<style type="text/css">
	.st0{display:none;}
	.st1{display:inline;}
	.st2{font-family:'NeutraTextTF-Demi';}
	.st3{font-size:25px;}
	.st4{letter-spacing:5;}
	.st5{fill:none;stroke:#020202;stroke-miterlimit:10;}
</style>
<g id="Layer_1">
</g>
<g id="text" class="st0">
	<text transform="matrix(1 0 0 1 452.706 50.4995)" class="st1 st2 st3 st4">WORK</text>
</g>
<g id="fill">
	<g>
		<path d="M453.4,33.5h2.8l3,9c0.1,0.2,0.2,0.5,0.2,0.8c0.1,0.3,0.1,0.6,0.2,0.8c0.1,0.3,0.1,0.6,0.2,0.8c0.1-0.3,0.2-0.6,0.2-0.8
			c0.1-0.2,0.2-0.5,0.3-0.8c0.1-0.3,0.2-0.6,0.3-0.8l3.9-9.2h0.3l3.9,9.2c0.1,0.2,0.2,0.5,0.3,0.8c0.1,0.3,0.2,0.6,0.3,0.8
			c0.1,0.3,0.2,0.6,0.2,0.8c0.1-0.3,0.2-0.5,0.2-0.8c0.1-0.2,0.1-0.5,0.2-0.8c0.1-0.3,0.2-0.6,0.2-0.8l3-9h2.6L470,50.7h-0.3
			l-4.2-10.1c-0.1-0.2-0.2-0.4-0.2-0.7c-0.1-0.2-0.2-0.5-0.2-0.7c-0.1-0.2-0.1-0.5-0.2-0.7c-0.1,0.2-0.2,0.5-0.2,0.7
			c-0.1,0.2-0.2,0.4-0.2,0.7s-0.2,0.5-0.2,0.7l-4.3,10.1h-0.3L453.4,33.5z"/>
		<path d="M490.8,50.7c-1.2,0-2.4-0.2-3.4-0.6c-1.1-0.4-2-1-2.8-1.8c-0.8-0.8-1.4-1.7-1.9-2.8S482,43.3,482,42s0.2-2.4,0.7-3.5
			c0.5-1.1,1.1-2,1.9-2.8c0.8-0.8,1.7-1.4,2.8-1.8c1.1-0.4,2.2-0.6,3.4-0.6s2.4,0.2,3.4,0.6c1.1,0.4,2,1,2.8,1.8
			c0.8,0.8,1.4,1.7,1.9,2.8c0.5,1.1,0.7,2.2,0.7,3.5s-0.2,2.4-0.7,3.5s-1.1,2-1.9,2.8c-0.8,0.8-1.7,1.4-2.8,1.8
			C493.1,50.5,492,50.7,490.8,50.7z M490.8,48.3c0.9,0,1.7-0.2,2.4-0.5s1.4-0.8,1.9-1.3c0.5-0.6,1-1.2,1.2-2
			c0.3-0.8,0.5-1.6,0.5-2.5s-0.1-1.7-0.5-2.5c-0.3-0.8-0.7-1.4-1.2-2c-0.5-0.6-1.2-1-1.9-1.3c-0.7-0.3-1.6-0.5-2.4-0.5
			s-1.7,0.2-2.4,0.5c-0.8,0.3-1.4,0.8-1.9,1.3c-0.5,0.6-0.9,1.2-1.2,2c-0.3,0.8-0.4,1.6-0.4,2.5s0.1,1.7,0.4,2.5
			c0.3,0.8,0.7,1.4,1.2,2s1.2,1,1.9,1.3S489.9,48.3,490.8,48.3z"/>
		<path d="M519.6,50.5h-3l-3-4.5c-0.2,0-0.5,0.1-0.7,0.1c-0.2,0-0.5,0-0.7,0h-1.6v4.4h-2.7v-17h4.2c1.2,0,2.2,0.1,3.1,0.5
			c0.9,0.3,1.7,0.7,2.3,1.3c0.6,0.5,1.1,1.2,1.4,2c0.3,0.8,0.5,1.7,0.5,2.6c0,1.3-0.3,2.4-0.9,3.3c-0.6,0.9-1.4,1.6-2.5,2.1
			L519.6,50.5z M512,43.8c1.7,0,2.9-0.3,3.6-1c0.7-0.7,1.1-1.7,1.1-2.9c0-1.3-0.4-2.3-1.1-3s-1.9-1-3.6-1h-1.5v8H512z"/>
		<path d="M530.4,43c0.2-0.4,0.4-0.8,0.6-1.2c0.2-0.4,0.5-0.8,0.7-1.1l5.5-7.2h3l-6,8l6.7,9h-3.2l-5.2-7.1l-1.8,2.2v4.9H528v-17h2.7
			v7c0,0.4,0,0.8-0.1,1.3C530.5,42.2,530.5,42.6,530.4,43z"/>
	</g>
</g>
<g id="outline">
	<g>
		<path class="st5" d="M453.4,33.5h2.8l3,9c0.1,0.2,0.2,0.5,0.2,0.8c0.1,0.3,0.1,0.6,0.2,0.8c0.1,0.3,0.1,0.6,0.2,0.8
			c0.1-0.3,0.2-0.6,0.2-0.8c0.1-0.2,0.2-0.5,0.3-0.8c0.1-0.3,0.2-0.6,0.3-0.8l3.9-9.2h0.3l3.9,9.2c0.1,0.2,0.2,0.5,0.3,0.8
			c0.1,0.3,0.2,0.6,0.3,0.8c0.1,0.3,0.2,0.6,0.2,0.8c0.1-0.3,0.2-0.5,0.2-0.8c0.1-0.2,0.1-0.5,0.2-0.8c0.1-0.3,0.2-0.6,0.2-0.8l3-9
			h2.6L470,50.7h-0.3l-4.2-10.1c-0.1-0.2-0.2-0.4-0.2-0.7c-0.1-0.2-0.2-0.5-0.2-0.7c-0.1-0.2-0.1-0.5-0.2-0.7
			c-0.1,0.2-0.2,0.5-0.2,0.7c-0.1,0.2-0.2,0.4-0.2,0.7s-0.2,0.5-0.2,0.7l-4.3,10.1h-0.3L453.4,33.5z"/>
		<path class="st5" d="M490.8,50.7c-1.2,0-2.4-0.2-3.4-0.6c-1.1-0.4-2-1-2.8-1.8c-0.8-0.8-1.4-1.7-1.9-2.8S482,43.3,482,42
			s0.2-2.4,0.7-3.5c0.5-1.1,1.1-2,1.9-2.8c0.8-0.8,1.7-1.4,2.8-1.8c1.1-0.4,2.2-0.6,3.4-0.6s2.4,0.2,3.4,0.6c1.1,0.4,2,1,2.8,1.8
			c0.8,0.8,1.4,1.7,1.9,2.8c0.5,1.1,0.7,2.2,0.7,3.5s-0.2,2.4-0.7,3.5s-1.1,2-1.9,2.8c-0.8,0.8-1.7,1.4-2.8,1.8
			C493.1,50.5,492,50.7,490.8,50.7z M490.8,48.3c0.9,0,1.7-0.2,2.4-0.5s1.4-0.8,1.9-1.3c0.5-0.6,1-1.2,1.2-2
			c0.3-0.8,0.5-1.6,0.5-2.5s-0.1-1.7-0.5-2.5c-0.3-0.8-0.7-1.4-1.2-2c-0.5-0.6-1.2-1-1.9-1.3c-0.7-0.3-1.6-0.5-2.4-0.5
			s-1.7,0.2-2.4,0.5c-0.8,0.3-1.4,0.8-1.9,1.3c-0.5,0.6-0.9,1.2-1.2,2c-0.3,0.8-0.4,1.6-0.4,2.5s0.1,1.7,0.4,2.5
			c0.3,0.8,0.7,1.4,1.2,2s1.2,1,1.9,1.3S489.9,48.3,490.8,48.3z"/>
		<path class="st5" d="M519.6,50.5h-3l-3-4.5c-0.2,0-0.5,0.1-0.7,0.1c-0.2,0-0.5,0-0.7,0h-1.6v4.4h-2.7v-17h4.2
			c1.2,0,2.2,0.1,3.1,0.5c0.9,0.3,1.7,0.7,2.3,1.3c0.6,0.5,1.1,1.2,1.4,2c0.3,0.8,0.5,1.7,0.5,2.6c0,1.3-0.3,2.4-0.9,3.3
			c-0.6,0.9-1.4,1.6-2.5,2.1L519.6,50.5z M512,43.8c1.7,0,2.9-0.3,3.6-1c0.7-0.7,1.1-1.7,1.1-2.9c0-1.3-0.4-2.3-1.1-3s-1.9-1-3.6-1
			h-1.5v8H512z"/>
		<path class="st5" d="M530.4,43c0.2-0.4,0.4-0.8,0.6-1.2c0.2-0.4,0.5-0.8,0.7-1.1l5.5-7.2h3l-6,8l6.7,9h-3.2l-5.2-7.1l-1.8,2.2v4.9
			H528v-17h2.7v7c0,0.4,0,0.8-0.1,1.3C530.5,42.2,530.5,42.6,530.4,43z"/>
	</g>
</g>
</svg>
